<?xml version="1.0" encoding="UTF-8" standalone="no"?>
<svg
   xmlns:dc="http://purl.org/dc/elements/1.1/"
   xmlns:cc="http://creativecommons.org/ns#"
   xmlns:rdf="http://www.w3.org/1999/02/22-rdf-syntax-ns#"
   xmlns:svg="http://www.w3.org/2000/svg"
   xmlns="http://www.w3.org/2000/svg"
   xmlns:sodipodi="http://sodipodi.sourceforge.net/DTD/sodipodi-0.dtd"
   xmlns:inkscape="http://www.inkscape.org/namespaces/inkscape"
   width="17.165236mm"
   height="17.887503mm"
   viewBox="0 0 17.165236 17.887503"
   version="1.1"
   id="svg8"
   sodipodi:docname="GPS_Trails_Logo_White.svg"
   inkscape:version="1.0.2-2 (e86c870879, 2021-01-15)">
  <defs
     id="defs2" />
  <sodipodi:namedview
     id="base"
     pagecolor="#ffffff"
     bordercolor="#666666"
     borderopacity="1.0"
     inkscape:pageopacity="0.0"
     inkscape:pageshadow="2"
     inkscape:zoom="5.6"
     inkscape:cx="35.000916"
     inkscape:cy="47.110086"
     inkscape:document-units="mm"
     inkscape:current-layer="layer1"
     inkscape:document-rotation="0"
     showgrid="false"
     inkscape:lockguides="true"
     fit-margin-top="0"
     fit-margin-left="0"
     fit-margin-right="0"
     fit-margin-bottom="0"
     inkscape:window-width="1858"
     inkscape:window-height="1057"
     inkscape:window-x="54"
     inkscape:window-y="-8"
     inkscape:window-maximized="1" />
  <metadata
     id="metadata5">
    <rdf:RDF>
      <cc:Work
         rdf:about="">
        <dc:format>image/svg+xml</dc:format>
        <dc:type
           rdf:resource="http://purl.org/dc/dcmitype/StillImage" />
        <dc:title></dc:title>
      </cc:Work>
    </rdf:RDF>
  </metadata>
  <g
     inkscape:label="Layer 1"
     inkscape:groupmode="layer"
     id="layer1"
     transform="translate(-77.506603,-133.03708)">
    <g
       id="g1456">
      <path
         style="fill:#ffffff;stroke:#ffffff;stroke-width:1.77942;stroke-linecap:butt;stroke-linejoin:round;stroke-miterlimit:4;stroke-dasharray:none;stroke-opacity:1;paint-order:normal;fill-opacity:1"
         d="m 86.021105,133.92671 -7.624858,12.9589 h 7.404716 l 0.761712,-4.74959 c 0.109236,-0.68133 0.887156,-1.52057 1.744596,-1.88205 l 1.151351,-0.48524 z"
         id="path1372-2" />
      <path
         id="rect1121"
         style="fill:#ffffff;stroke:none;stroke-width:0;stroke-linecap:butt;stroke-linejoin:round;stroke-miterlimit:4;stroke-dasharray:none;stroke-opacity:1;paint-order:normal;fill-opacity:1"
         d="m 94.012564,140.09426 c -0.149065,0.0136 -0.317394,0.0576 -0.499633,0.13437 l -3.604624,1.5197 c -0.728958,0.30731 -1.390573,1.02097 -1.483441,1.60022 l -1.113914,6.94636 c -0.09287,0.57924 0.419083,0.79788 1.148041,0.49057 l 3.604622,-1.5197 c 0.728958,-0.30732 1.390572,-1.02097 1.483443,-1.60022 l 1.113912,-6.94583 c 0.06965,-0.43443 -0.201206,-0.6664 -0.648406,-0.62547 z m -3.031402,4.15491 a 1.2579726,1.2579726 0 0 1 0.0048,0 1.2579726,1.2579726 0 0 1 1.257886,1.25788 1.2579726,1.2579726 0 0 1 -1.257886,1.25789 1.2579726,1.2579726 0 0 1 -1.257888,-1.25789 1.2579726,1.2579726 0 0 1 1.253088,-1.25788 z" />
    </g>
  </g>
</svg>
