<?xml version="1.0" encoding="UTF-8" standalone="no"?>
<svg
   xmlns:dc="http://purl.org/dc/elements/1.1/"
   xmlns:cc="http://creativecommons.org/ns#"
   xmlns:rdf="http://www.w3.org/1999/02/22-rdf-syntax-ns#"
   xmlns:svg="http://www.w3.org/2000/svg"
   xmlns="http://www.w3.org/2000/svg"
   width="17.165236mm"
   height="17.887503mm"
   viewBox="0 0 17.165236 17.887503"
   version="1.1"
   id="svg8">
  <defs
     id="defs2" />
  <metadata
     id="metadata5">
    <rdf:RDF>
      <cc:Work
         rdf:about="">
        <dc:format>image/svg+xml</dc:format>
        <dc:type
           rdf:resource="http://purl.org/dc/dcmitype/StillImage" />
        <dc:title></dc:title>
      </cc:Work>
    </rdf:RDF>
  </metadata>
  <g
     id="layer1"
     transform="translate(-77.506603,-133.03708)">
    <g
       id="g1450">
      <path
         style="fill:#000000;stroke:#000000;stroke-width:6.72537;stroke-linecap:butt;stroke-linejoin:round;stroke-miterlimit:4;stroke-dasharray:none;stroke-opacity:1;paint-order:normal"
         d="m 325.11914,506.17969 -28.81836,48.97851 h 27.98633 l 2.87891,-17.95117 c 0.41286,-2.57514 3.35303,-5.74706 6.59375,-7.11328 l 4.35156,-1.83398 z"
         transform="scale(0.26458333)"
         id="path1372-2" />
      <path
         id="rect1121"
         style="fill:#000000;stroke:#000000;stroke-width:0;stroke-linecap:butt;stroke-linejoin:round;stroke-miterlimit:4;stroke-dasharray:none;stroke-opacity:1;paint-order:normal"
         d="m 94.012564,140.09426 c -0.149065,0.0136 -0.317394,0.0576 -0.499633,0.13437 l -3.604624,1.5197 c -0.728958,0.30731 -1.390573,1.02097 -1.483441,1.60022 l -1.113914,6.94636 c -0.09287,0.57924 0.419083,0.79788 1.148041,0.49057 l 3.604622,-1.5197 c 0.728958,-0.30732 1.390572,-1.02097 1.483443,-1.60022 l 1.113912,-6.94583 c 0.06965,-0.43443 -0.201206,-0.6664 -0.648406,-0.62547 z m -3.031402,4.15491 a 1.2579726,1.2579726 0 0 1 0.0048,0 1.2579726,1.2579726 0 0 1 1.257886,1.25788 1.2579726,1.2579726 0 0 1 -1.257886,1.25789 1.2579726,1.2579726 0 0 1 -1.257888,-1.25789 1.2579726,1.2579726 0 0 1 1.253088,-1.25788 z" />
    </g>
  </g>
</svg>
